<svg width="29" height="21" viewBox="0 0 29 21" fill="none" xmlns="http://www.w3.org/2000/svg">
<path d="M24.5658 1.75872C22.6885 0.937115 20.6813 0.339976 18.5829 0C18.3251 0.435866 18.024 1.0221 17.8165 1.48848C15.5857 1.17466 13.3754 1.17466 11.1857 1.48848C10.9782 1.0221 10.6702 0.435866 10.4102 0C8.30947 0.339976 6.29995 0.939293 4.42274 1.76308C0.636361 7.11551 -0.390064 12.335 0.123149 17.4804C2.63447 19.2348 5.06824 20.3004 7.46095 20.9978C8.05171 20.2373 8.57861 19.4288 9.03253 18.5766C8.16805 18.2693 7.34007 17.8902 6.55769 17.4499C6.76526 17.3061 6.96827 17.1557 7.16443 17.001C11.9362 19.0887 17.1207 19.0887 21.8355 17.001C22.0339 17.1557 22.2369 17.3061 22.4422 17.4499C21.6576 17.8923 20.8273 18.2715 19.9628 18.5788C20.4167 19.4288 20.9413 20.2394 21.5344 21C23.9293 20.3026 26.3654 19.237 28.8767 17.4804C29.4789 11.5156 27.848 6.34403 24.5658 1.75872ZM9.68259 14.316C8.25016 14.316 7.07547 13.0651 7.07547 11.5418C7.07547 10.0184 8.22507 8.7653 9.68259 8.7653C11.1401 8.7653 12.3148 10.0162 12.2897 11.5418C12.292 13.0651 11.1401 14.316 9.68259 14.316ZM19.3173 14.316C17.8849 14.316 16.7101 13.0651 16.7101 11.5418C16.7101 10.0184 17.8598 8.7653 19.3173 8.7653C20.7748 8.7653 21.9495 10.0162 21.9244 11.5418C21.9244 13.0651 20.7748 14.316 19.3173 14.316Z" fill="#5573DC" fill-opacity="0.9"/>
</svg>
